/* XPM */
static char *vista_close[] = {
/* columns rows colors chars-per-pixel */
"40 15 59 1 ",
"  c gray4",
". c #0B0B0B",
"X c #0C0C0C",
"o c gray5",
"O c #0E0E0E",
"+ c gray6",
"@ c #101010",
"# c #111111",
"$ c gray17",
"% c gray35",
"& c gray38",
"* c #686868",
"= c gray44",
"- c #767676",
"; c gray47",
": c #797979",
"> c #7C7C7C",
", c gray50",
"< c #808080",
"1 c #989898",
"2 c #9A9A9A",
"3 c #9D9D9D",
"4 c #A0A0A0",
"5 c gray64",
"6 c #A5A5A5",
"7 c gray65",
"8 c gray66",
"9 c #AAAAAA",
"0 c #ACACAC",
"q c gray68",
"w c #AEAEAE",
"e c #B1B1B1",
"r c gray70",
"t c gray72",
"y c gray74",
"u c #C8C8C8",
"i c #D0D0D0",
"p c LightGray",
"a c gray84",
"s c gray85",
"d c gray86",
"f c #DDDDDD",
"g c gray87",
"h c #DFDFDF",
"j c gray90",
"k c gray91",
"l c #E9E9E9",
"z c #EAEAEA",
"x c gray92",
"c c #EFEFEF",
"v c gray94",
"b c gray95",
"n c #F3F3F3",
"m c #F4F4F4",
"M c gray96",
"N c gray98",
"B c #FEFEFE",
"V c gray100",
"C c None",
/* pixels */
"omBBBBBBBBBBBBBBBBBBBBBBBBBBBBBBBBBBBBNo",
"oxnnmmmmnnmmmmnnmmmmnnmmmmnnmmmmmmmmmmmo",
"ojxxxxxxxxxxxxxxxxxxxxxxxxxxxxxxxjxxxxco",
"ofdfffffffffffffqqqfffqqqfffffffffffffxo",
"oappppppppppppp8mmn8p8mmm8ppppppapppppjo",
"oiuuuuuuuuuuuuuu6nnn6nnn6uuuuuuuuuuuuujo",
".uyyyyyyyyyyyyyyy3nnncc3yyyyyyyyyyyytydo",
".1%%%%%%%%%%%%%%%-daadd-%%%%%%%%%%%%%%3#",
"o2&&&&&&&&&&&&&&;ddd-ddd;&&&&&&&&&&&&&6#",
"o3*************,ffd,*,fff,************6#",
".5==============<<<===<<,=============q#",
".5;-;;;-;;;;;;;;;;;;;;;;;;;;;;;;;;--;;e#",
".6,,,,,,,,,,,,,,,,,,,,,,,,,,,,,,,,,,,tqo",
".6tttttttttttttttttttttttttttttttttttq$C",
"......................................CC"
};
