/* XPM */
static char *_9b16fd43bd24abaa21b6bfcd1cfee13[] = {
/* columns rows colors chars-per-pixel */
"40 15 33 1 ",
"  c #090202",
". c #0A0202",
"X c #0E0302",
"o c #2D0705",
"O c #6D160B",
"+ c #77180D",
"@ c #7F1A0F",
"# c #8A1E10",
"$ c #902111",
"% c #932211",
"& c #9A2612",
"* c #9C2614",
"= c #B1361A",
"- c #B53B1D",
"; c #BB401F",
": c #BE4220",
"> c #BF4521",
", c #C24A22",
"< c #C54F25",
"1 c #CB572A",
"2 c #CD5E2D",
"3 c #D56E37",
"4 c #DE8345",
"5 c #E29252",
"6 c #E29756",
"7 c #E8AC6A",
"8 c #EBBC7D",
"9 c #EFC88D",
"0 c #F3D4A1",
"q c #F3D7A6",
"w c #FAEAD1",
"e c #FEF9F7",
"r c None",
/* pixels */
".qeeeeeeeeeeeeeeeeeeeeeeeeeeeeeeeeeeeew.",
".800qqqq00qqqq00qqqq00qqqq00qqqqqqqqqqq.",
".78888888888888888888888888888888789889.",
".656666666666666,,,666,,,66666666666668.",
".44444444444444>eee>4>eee>4444444444447.",
".433333333333333:eee:eee:33333333333337.",
".3222222222222222-eeeee=222222222222125.",
".=OOOOOOOOOOOOOOO$eeeee$OOOOOOOOOOOOOO-.",
".=++++++++++++++%eee$eee$+++++++++++++-X",
".-@@+#@@@@@@+#@&eee&#&eee*+#@@@@+#@@@@,X",
"X-##############***###*&&#############,X",
".,$$%%%#%%%$%%$$%%$$$$$$%%%%%%%$%%$$$%<X",
".:&&&&&&*&&&&&&&&&&&&&&&&&&&&&&&&&&&&1,.",
".:11111111111111111111111111111111111,or",
"....    ....    ....        ..........rr"
};
