/* XPM */
static char *d7bde71d834a4e63b47eb41f384751f4[] = {
/* columns rows colors chars-per-pixel */
"40 15 145 2 ",
"   c #3E0800",
".  c #3E0C00",
"X  c #3E0D00",
"o  c #400900",
"O  c #4E0E00",
"+  c #510C05",
"@  c #680E08",
"#  c #770F0B",
"$  c #7C0F0C",
"%  c #7E1200",
"&  c #73423B",
"*  c #77433C",
"=  c #7E433E",
"-  c #7E433F",
";  c #7F4440",
":  c #821201",
">  c #831302",
",  c #8A1300",
"<  c #881303",
"1  c #8D1201",
"2  c #8C1400",
"3  c #8F1402",
"4  c #8C1405",
"5  c #8F1406",
"6  c #85110E",
"7  c #911402",
"8  c #971700",
"9  c #921307",
"0  c #931404",
"q  c #9A1702",
"w  c #9E1603",
"e  c #9B1506",
"r  c #981800",
"t  c #951408",
"y  c #9C1408",
"u  c #921210",
"i  c #9B1312",
"p  c #A71700",
"a  c #A01605",
"s  c #A91703",
"d  c #AA1702",
"f  c #AB1604",
"g  c #AE1606",
"h  c #AE1707",
"j  c #A01805",
"k  c #A01609",
"l  c #A41708",
"z  c #A91709",
"x  c #AF1609",
"c  c #AF160F",
"v  c #B91706",
"b  c #BA1706",
"n  c #B81800",
"m  c #B91A01",
"M  c #B81802",
"N  c #B91805",
"B  c #B2160B",
"V  c #B5160D",
"C  c #B91708",
"Z  c #BA170E",
"A  c #BA1808",
"S  c #BA180A",
"D  c #BA180C",
"F  c #A71313",
"G  c #AE1515",
"H  c #BA1710",
"J  c #B91612",
"K  c #BC1612",
"L  c #BF1713",
"P  c #BC1715",
"I  c #BF1810",
"U  c #BD1813",
"Y  c #C41B01",
"T  c #C61D00",
"R  c #C41E01",
"E  c #C41C05",
"W  c #C21A08",
"Q  c #C2190A",
"!  c #C31A0B",
"~  c #C2180C",
"^  c #C21717",
"/  c #C3191C",
"(  c #C31E1C",
")  c #C6221D",
"_  c #C9251E",
"`  c #CA271F",
"'  c #CD2A20",
"]  c #D03123",
"[  c #D43525",
"{  c #DA3F28",
"}  c #9C432F",
"|  c #A2442F",
" . c #AD462F",
".. c #AA482F",
"X. c #B5482F",
"o. c #B6492E",
"O. c #BF482E",
"+. c #C64A2F",
"@. c #CC4B2F",
"#. c #D44F2F",
"$. c #DA502F",
"%. c #C94B39",
"&. c #CA4D3B",
"*. c #CA523D",
"=. c #C9523E",
"-. c #E3512D",
";. c #E6522F",
":. c #845B53",
">. c #85615B",
",. c #87655D",
"<. c #896C66",
"1. c #8A6F67",
"2. c #8A7168",
"3. c #8C7770",
"4. c #CC5A43",
"5. c #CD5F46",
"6. c #CD6148",
"7. c #CE6648",
"8. c #D36753",
"9. c #D36B55",
"0. c #DD6F50",
"q. c #D4735A",
"w. c #D6785D",
"e. c #D7795E",
"r. c #DA7D67",
"t. c #D47F69",
"y. c #DE8871",
"u. c #DC8F78",
"i. c #DE927A",
"p. c #E08C72",
"a. c #E19C87",
"s. c #E6A08A",
"d. c #EAAF9B",
"f. c #EDB8A6",
"g. c #EFBCAA",
"h. c #EDBDAE",
"j. c #F2C9BA",
"k. c #F5D3C9",
"l. c #F6D7CA",
"z. c #F6DAD0",
"x. c #FBEAE3",
"c. c #FCF2ED",
"v. c #FEF9F5",
"b. c gray100",
"n. c None",
/* pixels */
". k.c.v.v.v.v.v.v.v.v.v.v.v.v.v.v.v.v.v.v.v.v.v.v.v.v.v.v.v.v.v.v.v.v.v.v.v.x.. ",
". h.k.l.k.l.l.l.l.l.l.l.l.l.l.l.l.l.l.l.l.k.l.l.l.l.l.k.l.l.l.l.l.l.l.l.l.l.z.. ",
". d.f.g.g.g.g.g.g.g.g.h.g.g.g.g.g.g.g.g.g.g.g.g.g.g.g.g.g.g.g.g.g.g.g.h.g.g.j.. ",
". a.s.s.s.s.s.s.s.s.s.s.s.s.s.s.3.3.3.s.s.s.3.3.3.s.s.s.s.s.s.s.s.s.s.s.s.s.g.. ",
". u.p.p.p.p.p.p.p.p.p.p.p.p.y.2.b.b.b.<.r.<.b.b.b.<.y.y.y.p.p.p.y.p.p.p.p.p.d.. ",
". t.e.e.e.e.e.e.e.e.e.e.e.e.q.9.,.b.b.b.>.b.b.b.,.9.9.e.e.e.e.e.e.e.e.e.e.e.s.. ",
". 0.7.7.7.7.7.7.7.7.7.7.6.4.=.=.&.:.b.b.b.b.b.:.&.&.=.=.4.6.7.7.7.7.7.7.7.7.i.. ",
". } % % % % % % % % % > > > 5 5 9 & b.b.b.b.b.& t 9 5 2 < > > % % % % % % % X.. ",
". | 2 2 2 , , , , 2 2 2 0 0 y y & b.b.b.* b.b.b.& k y e 0 0 7 1 2 2 2 , , , X.. ",
". ..8 8 r r 8 8 8 8 q a j j l = b.b.b.; c = b.b.b.* z l l a j w r r r r 8 8 O.. ",
".  .p p p p p p p d d f f B x B = ; ; H H H ; ; = V B B B f f d p p p p w p @.. ",
"  X.n n n n n n n n n N N S S D Z H K P P P U K H Z D S S N N n n n n n n n #.. ",
"  X.T T T T T T T T R E E Q Q ~ ~ U U U ^ ^ I P I I Q Q W E Y T T T T T T $.@.. ",
"  X.;.;.;.;.;.;.;.;.;.-.{ [ ] ' ` / ( / / / / ( ) ` ' ] { -.;.;.;.;.;.;.;.+.O   ",
".                       + @ # # 6 u i F G G F i u 6 $ # +                   . n."
};
