/* XPM */
static char *vista_close_pressed_[] = {
/* columns rows colors chars-per-pixel */
"40 15 200 2 ",
"   c #641300",
".  c #671401",
"X  c #641A00",
"o  c #661A00",
"O  c #641C00",
"+  c #761F00",
"@  c #791A0B",
"#  c #801A0C",
"$  c #8F1F13",
"%  c #981F16",
"&  c #9C2118",
"*  c #A22600",
"=  c #A52503",
"-  c #AE2602",
";  c #A32903",
":  c #A62806",
">  c #AC2800",
",  c #AD2901",
"<  c #A82806",
"1  c #AA2708",
"2  c #AD290B",
"3  c #B62F00",
"4  c #B12905",
"5  c #B02A06",
"6  c #B82E04",
"7  c #B92F05",
"8  c #BB2D07",
"9  c #B32909",
"0  c #B22A0A",
"q  c #B52B0B",
"w  c #B0290E",
"e  c #B6280C",
"r  c #BB2F09",
"t  c #BD2C0B",
"y  c #B82A0E",
"u  c #B92B0F",
"i  c #BE2F0E",
"p  c #B73001",
"a  c #B63102",
"s  c #BD310B",
"d  c #BF300F",
"f  c #A0211A",
"g  c #A1211B",
"h  c #A8241E",
"j  c #B22710",
"k  c #B42912",
"l  c #BA2A12",
"z  c #BD2D15",
"x  c #B12521",
"c  c #B22522",
"v  c #B92825",
"b  c #C22E00",
"n  c #C22F02",
"m  c #C32F07",
"M  c #C42E06",
"N  c #C52C09",
"B  c #C52E0B",
"V  c #C72C0D",
"C  c #C62C0E",
"Z  c #CE2F0A",
"A  c #CF2E0F",
"S  c #D02E0E",
"D  c #CE3000",
"F  c #CE3202",
"G  c #CF3303",
"H  c #CE3006",
"J  c #CF300B",
"K  c #D73503",
"L  c #D73A03",
"P  c #D83800",
"I  c #D73509",
"U  c #D7360B",
"Y  c #D6340E",
"T  c #C02F12",
"R  c #C72F11",
"E  c #C32E15",
"W  c #CF2E13",
"Q  c #C82D14",
"!  c #C92E15",
"~  c #CA2D18",
"^  c #CC2D1C",
"/  c #D02F1E",
"(  c #D03112",
")  c #D53313",
"_  c #D03016",
"`  c #D53217",
"'  c #D0301A",
"]  c #D63318",
"[  c #D5311B",
"{  c #D5301F",
"}  c #C82C20",
"|  c #CE2C24",
" . c #CF2D25",
".. c #C02828",
"X. c #C22828",
"o. c #C72B2B",
"O. c #D12E21",
"+. c #D02E22",
"@. c #D12D25",
"#. c #D32F27",
"$. c #D12F2B",
"%. c #D32F2B",
"&. c #D52F2F",
"*. c #D33023",
"=. c #D23028",
"-. c #D53333",
";. c #D63236",
":. c #D63A36",
">. c #D84038",
",. c #DA453A",
"<. c #DB473B",
"1. c #DD4C3D",
"2. c #BA6A52",
"3. c #BE6B52",
"4. c #996961",
"5. c #9A6A62",
"6. c #9C6A62",
"7. c #9D6A63",
"8. c #9F6B62",
"9. c #9F6A63",
"0. c #9E6A64",
"q. c #A16B65",
"w. c #A26A64",
"e. c #A26A65",
"r. c #A26B65",
"t. c #A06B66",
"y. c #A36A67",
"u. c #A36B67",
"i. c #DE5340",
"p. c #DF5441",
"a. c #E25A44",
"s. c #C66D52",
"d. c #CD6E51",
"f. c #CC6F52",
"g. c #C47052",
"h. c #C67052",
"j. c #CD7151",
"k. c #D37051",
"l. c #D97151",
"z. c #D87252",
"x. c #DC7352",
"c. c #DA735E",
"v. c #E66648",
"b. c #E27752",
"n. c #E67852",
"m. c #EC7950",
"M. c #EE7A52",
"N. c #DB7561",
"B. c #DB7A63",
"V. c #DA7A64",
"C. c #A7817B",
"Z. c #A7837B",
"A. c #DB8067",
"S. c #DC826A",
"D. c #DD876D",
"F. c #DD896F",
"G. c #DD8D71",
"H. c #DE8D70",
"J. c #E18E7B",
"K. c #E1927D",
"L. c #E89578",
"P. c #A88983",
"I. c #A98C85",
"U. c #A98C86",
"Y. c #AB938C",
"T. c #AB938D",
"R. c #AC958E",
"E. c #AC978F",
"W. c #AD9C96",
"Q. c #AE9D97",
"!. c #E29982",
"~. c #E39B85",
"^. c #E39D85",
"/. c #E49E86",
"(. c #E6A18E",
"). c #E2A390",
"_. c #E9AA97",
"`. c #E9AC97",
"'. c #EAAD98",
"]. c #E7B09D",
"[. c #E9B29F",
"{. c #EBBAA9",
"}. c #EDBCAB",
"|. c #EEBDAC",
" X c #EDBEAD",
".X c #F1C8B9",
"XX c #F3CEC1",
"oX c #F3D0C5",
"OX c #F3D2C7",
"+X c #F4D1C4",
"@X c #F6DAD0",
"#X c #F8E0D8",
"$X c #F8E1DA",
"%X c #F9E4DB",
"&X c #F9E6DF",
"*X c #FCF1EC",
"=X c #FDF6F3",
"-X c #FEFBF8",
";X c gray100",
":X c None",
/* pixels */
"X $X=X-X-X-X-X-X-X-X-X-X-X-X-X-X-X-X-X-X-X-X-X-X-X-X-X-X-X-X-X-X-X-X-X-X-X-X*XX ",
"X OX$X%X$X%X%X%X%X%X%X%X%X%X%X%X%X%X%X%X%X%X%X%X%X%X%X$X%X%X%X%X%X%X%X%X%X%X&XX ",
"X .XXX+X+X+X+X+X+X+X+XOX+X+X+X+X+X+X+X+X+X+X+X+X+X+X+X+X+X+X+X+X+X+X+X+X+X+X@XX ",
"X {.|.|.|.|.|.|.|.|.|.|.|.|.|.|.W.W.W.|.|.|.W.W.W.|.|.|.|.|.|.|.|.|.|.|.|.|.OXX ",
"X ].'.'.'.'.'.'.'.'.'.'.'.'._.E.;X;X;XT.(.T.;X;X;XR._.'.'.'.'.'.'.'.'.'.'.'..XX ",
"X )././././././.^.^././.^.^.!.K.I.;X;X;XP.;X;X;XI.J.K.!.^.^./././.^././.^.^. XX ",
"X L.H.H.H.H.H.H.H.H.H.H.F.S.A.B.N.Z.;X;X;X;X;XC.c.N.V.A.S.D.H.H.H.H.H.H.H.H.[.X ",
"X 2.* * * * * * * * * : : < 2 w j 4.;X;X;X;X;X4.k j w 2 1 : = * * * * * * * f.X ",
"X 3., , > > > > > > , 5 9 9 u l 4.;X;X;X0.;X;X;X6.z l u 9 9 4 - > > > > > > j.o ",
"X g.3 3 3 3 3 3 3 p 6 8 s s T w.;X;X;Xe.} e.;X;X;X6.E T T t s 7 p p 3 3 3 3 k.o ",
"X s.b b b b b b b n M N V Q Q ~ e.e.e. . . .e.u.e.^ ~ ~ R V N m b b b b 7 b x.o ",
"  f.D D D D D D D D H J S ( _ ' / +.@.=.$.$.=.@.+./ ' _ W A J G D D D D D D b.X ",
"  j.P P P P P P P P L U Y ) ` [ { *.#.%.&.&.=.#.*.{ [ ] ) U K P P P P P P n.x.X ",
"  d.M.M.M.M.M.M.M.M.M.m.v.a.p.1.<.>.:.-.;.;.;.:.>.,.1.i.v.m.M.M.M.M.M.M.M.z.+ . ",
"O                       @ $ & f h c v ..o.o.X.v c h f & @ .                 O :X"
};
