/* XPM */
static char *vista_min_pressed_pn[] = {
/* columns rows colors chars-per-pixel */
"26 15 201 2 ",
"   c #004964",
".  c #004B64",
"X  c #004D66",
"o  c #005264",
"O  c #015566",
"+  c #005976",
"@  c #0B6D7A",
"#  c #0C727F",
"$  c #007EA2",
"%  c #13868F",
"&  c #168F97",
"*  c #18949B",
"=  c #1A9A9F",
"-  c #0381A3",
";  c #0382A4",
":  c #0687A6",
">  c #0688A7",
",  c #0086AC",
"<  c #0188AD",
"1  c #0289AD",
"2  c #068EAF",
"3  c #088DAA",
"4  c #088EAA",
"5  c #0B92AD",
"6  c #0E97AF",
"7  c #1B9BA1",
"8  c #058FB0",
"9  c #018AB6",
"0  c #048EB7",
"q  c #058FB8",
"w  c #0993B2",
"e  c #0A94B2",
"r  c #0B99B5",
"t  c #0C9AB5",
"y  c #0E9EB7",
"u  c #0795BA",
"i  c #0995BA",
"p  c #0F9FB8",
"a  c #0B9ABC",
"s  c #0B9BBC",
"d  c #1EA4A8",
"f  c #0EA0BE",
"g  c #0FA1BE",
"h  c #12A3BA",
"j  c #21ADB0",
"k  c #22AFB1",
"l  c #25B7B8",
"z  c #25B8B8",
"x  c #46929F",
"c  c #50939D",
"v  c #609199",
"b  c #619299",
"n  c #62939A",
"m  c #62949A",
"M  c #62949B",
"N  c #61949C",
"B  c #62959C",
"V  c #62969E",
"C  c #63989F",
"Z  c #639BA1",
"A  c #649CA1",
"S  c #659EA3",
"D  c #669FA3",
"F  c #4DA6B1",
"G  c #4FA9B1",
"H  c #51A3BA",
"J  c #51A5BE",
"K  c #67A0A3",
"L  c #68A1A4",
"P  c #69A2A4",
"I  c #6AA3A4",
"U  c #28C0BF",
"Y  c #0299C2",
"T  c #069EC3",
"R  c #079EC3",
"E  c #09A3C5",
"W  c #0BA3C4",
"Q  c #0EA7C5",
"!  c #0DA9C6",
"~  c #02A1CD",
"^  c #03A3CE",
"/  c #06A6CE",
"(  c #0AAACE",
")  c #0BACCE",
"_  c #12A6C0",
"`  c #15ABC2",
"'  c #11ADC7",
"]  c #0EB0CF",
"[  c #0FB1CF",
"{  c #14B2C8",
"}  c #15B2C8",
"|  c #12B4CF",
" . c #13B6CF",
".. c #18B6C9",
"X. c #16B9CF",
"o. c #03A5D7",
"O. c #03A6D7",
"+. c #09ACD6",
"@. c #0BAED6",
"#. c #00A3D8",
"$. c #0EB2D6",
"%. c #13B7D5",
"&. c #17BCD5",
"*. c #1ABDD0",
"=. c #18BCD5",
"-. c #51A7C4",
";. c #51AAC6",
":. c #50ADC6",
">. c #51AECD",
",. c #51B0CC",
"<. c #51B1CD",
"1. c #51B6D3",
"2. c #51BAD8",
"3. c #51BBD9",
"4. c #51BDDC",
"5. c #50BEE1",
"6. c #1BC0D4",
"7. c #1FC4D4",
"8. c #2BC6C4",
"9. c #2BC7C5",
"0. c #23C8D3",
"q. c #23C9D3",
"w. c #27CCD3",
"e. c #27CDD3",
"r. c #3FCFDE",
"t. c #2BD1D2",
"y. c #2FD5D2",
"u. c #31D6D2",
"i. c #33D5D4",
"p. c #35D4D6",
"a. c #36D4D6",
"s. c #38D3D8",
"d. c #3BD1DB",
"f. c #3AD2DA",
"g. c #3DD0DD",
"h. c #40CFDF",
"j. c #5BC9DA",
"k. c #5CC9DA",
"l. c #5EC8DA",
"z. c #60C7DB",
"x. c #63C6DB",
"c. c #67C5DB",
"v. c #64C6DA",
"b. c #6DC3DD",
"n. c #6EC3DD",
"m. c #6AC4DC",
"M. c #70C3DD",
"N. c #70C3DE",
"B. c #72CFDF",
"V. c #75CEDF",
"C. c #76CEDF",
"Z. c #43CDE2",
"A. c #48CBE6",
"S. c #4FC7EC",
"D. c #51C1E5",
"F. c #50C7EC",
"G. c #51C7EE",
"H. c #73CFE0",
"J. c #75CFE0",
"K. c #78CEE0",
"L. c #7ACEE1",
"P. c #7DCDE1",
"I. c #78CCE8",
"U. c #81CDE2",
"Y. c #85CCE3",
"T. c #85CDE3",
"R. c #86CDE4",
"E. c #8FD0E2",
"W. c #8DD5E6",
"Q. c #8DD5E7",
"!. c #8ED5E7",
"~. c #8FD5E7",
"^. c #90D5E7",
"/. c #92D5E7",
"(. c #9CD5E7",
"). c #91D5E8",
"_. c #94D5E8",
"`. c #97D5E9",
"'. c #97D6E9",
"]. c #98D6EA",
"[. c #9FD7E9",
"{. c #A8DBEB",
"}. c #ABDDED",
"|. c #AADEED",
" X c #ACDDED",
".X c #ACDEEE",
"XX c #B9E3F1",
"oX c #C1E7F3",
"OX c #C5E9F3",
"+X c #C6E8F3",
"@X c #C4E8F4",
"#X c #D0EDF6",
"$X c #D8F0F8",
"%X c #DAF1F8",
"&X c #DBF1F9",
"*X c #DEF2F9",
"=X c #EBF7FC",
"-X c #F3FAFD",
";X c #F8FBFE",
":X c gray100",
">X c None",
/* pixels */
". =X;X;X;X;X;X;X;X;X;X;X;X;X;X;X;X;X;X;X;X;X;X;X-X$X",
". *X&X&X&X&X&X&X&X&X&X&X&X&X&X&X&X&X&X&X&X&X&X&X&XOX",
". #X@X@X@X@X@X@X@X@X@X@X@X@X@X@X@X@X@X@X@X@X@X@XoXXX",
". OX.X.X.X.X.X.X.X.X}.}.}.}.}.}.}.}.}..X.X.X.X.X.X{.",
". XX].].].].].`.`.`.).^.!.Q.Q.Q.!.).`.].`.`.].].].(.",
". .XR.R.R.Y.Y.U.P.K.K.C.J.B.H.H.J.K.K.P.U.T.R.R.T.E.",
". [.M.M.M.n.m.c.x.z.l.j.j.j.j.j.j.l.z.v.c.m.b.N.M.I.",
". ;.$ $ - : 3 5 6 c b m m m m m m b b x 5 4 > - $ H ",
"X >., < 2 w r h h B :X:X:X:X:X:X:X:X:XB p r e 8 < J ",
"X 1.9 0 u a f g ` C :X:X:X:X:X:X:X:X:XB _ f s i q -.",
"X 2.Y T E Q ' { ..A :X:X:X:X:X:X:X:X:XZ { ' ! W R :.",
"X 5.~ / ) ] | X.*.G D L P I P P K K D G X. .[ ( ^ ,.",
". 4.D.o.+.$.%.&.6.7.0.w.t.y.y.t.w.0.7.6.&.%.@.O.#.>.",
"o + 2.G.F.A.Z.h.g.d.s.a.i.u.u.i.a.d.s.g.g.A.G.G.G.,.",
">X. o o o # % & = d j l U 9.9.U z k d 7 * @ O o o o "
};
