/* XPM */
static char *vista_min[] = {
/* columns rows colors chars-per-pixel */
"26 15 56 1 ",
"  c #0B0B0B",
". c gray5",
"X c #0E0E0E",
"o c gray6",
"O c #101010",
"+ c #111111",
"@ c gray17",
"# c gray35",
"$ c gray38",
"% c #686868",
"& c #6F6F6F",
"* c gray44",
"= c #717171",
"- c #767676",
"; c gray47",
": c #797979",
"> c #7C7C7C",
", c gray50",
"< c #808080",
"1 c #838383",
"2 c #989898",
"3 c #9A9A9A",
"4 c #9D9D9D",
"5 c #A0A0A0",
"6 c gray64",
"7 c #A5A5A5",
"8 c gray65",
"9 c gray66",
"0 c #ACACAC",
"q c gray68",
"w c #AEAEAE",
"e c #B1B1B1",
"r c gray70",
"t c gray72",
"y c gray74",
"u c #C8C8C8",
"i c #D0D0D0",
"p c LightGray",
"a c gray84",
"s c gray85",
"d c gray86",
"f c #DDDDDD",
"g c gray87",
"h c #DFDFDF",
"j c gray90",
"k c gray91",
"l c #E9E9E9",
"z c #EAEAEA",
"x c gray92",
"c c #EFEFEF",
"v c #F3F3F3",
"b c #F4F4F4",
"n c gray98",
"m c #FEFEFE",
"M c gray100",
"N c None",
/* pixels */
"XnMMMMMMMMMMMMMMMMMMMMMMMb",
"Xbbbbbbbbbbbbbbbbbbbbbbbvl",
"Xvlllllllllllllllllllllllj",
" lgggggggggggggggggggggggg",
"Xjpppppppppppppppppppppppp",
"Xguuuuuuuuuuuuuuuuuuuuuuup",
"Xsyyyyyyyyyyyyyyyyyyyyyyyu",
"X5#######=---------&#####2",
"O8$$$$$$$:sgsssgsgs:$$$$$3",
"O8%%%%%%%>gggggggsg>%%%%%4",
"Ow==&====<gggjggjgg<==&==4",
"Oe-::--:-<11<1<<11<<-::--8",
"Xwr<><<<<<<>><<>><<<<<<>>8",
"N@wtttttttttttttttttttttt9",
"NN            X           "
};
