/* XPM */
static char *vista_max_pressed_pn[] = {
/* columns rows colors chars-per-pixel */
"27 15 147 2 ",
"   c #004B64",
".  c #005264",
"X  c #015566",
"o  c #0B6D7A",
"O  c #0C727F",
"+  c #007EA2",
"@  c #13868F",
"#  c #168F97",
"$  c #18949B",
"%  c #1A9A9F",
"&  c #0381A3",
"*  c #0382A4",
"=  c #0687A6",
"-  c #0688A7",
";  c #0086AC",
":  c #0188AD",
">  c #068EAF",
",  c #088DAA",
"<  c #0B92AD",
"1  c #1B9BA1",
"2  c #058FB0",
"3  c #018AB6",
"4  c #048EB7",
"5  c #058FB8",
"6  c #0993B2",
"7  c #0B99B5",
"8  c #0C9AB5",
"9  c #0E9EB7",
"0  c #0795BA",
"q  c #0995BA",
"w  c #0B9ABC",
"e  c #1EA4A8",
"r  c #0EA0BE",
"t  c #0FA1BE",
"y  c #14A2B5",
"u  c #15A4B6",
"i  c #15A5B7",
"p  c #18AEBF",
"a  c #18AFBF",
"s  c #21ADB0",
"d  c #22AFB1",
"f  c #25B8B8",
"g  c #608F98",
"h  c #619299",
"j  c #61949C",
"k  c #62969E",
"l  c #64999F",
"z  c #639AA1",
"x  c #659BA0",
"c  c #669DA0",
"v  c #659EA3",
"b  c #4DA6B1",
"n  c #51A3BA",
"m  c #51A5BE",
"M  c #68A1A4",
"N  c #69A2A4",
"B  c #6AA3A4",
"V  c #7BA0A7",
"C  c #7AA1A7",
"Z  c #7DA0A7",
"A  c #7EA0A7",
"S  c #28C1BF",
"D  c #0299C2",
"F  c #069EC3",
"G  c #079EC3",
"H  c #09A3C5",
"J  c #0EA7C5",
"K  c #0DA9C6",
"L  c #02A1CD",
"P  c #03A3CE",
"I  c #06A6CE",
"U  c #0AAACE",
"Y  c #0BACCE",
"T  c #12A6C0",
"R  c #11ADC7",
"E  c #0EB0CF",
"W  c #0FB1CF",
"Q  c #1AB1C0",
"!  c #1BB2C1",
"~  c #14B2C8",
"^  c #15B2C8",
"/  c #12B4CF",
"(  c #13B6CF",
")  c #16B9CF",
"_  c #03A5D7",
"`  c #09ACD6",
"'  c #0BAED6",
"]  c #00A3D8",
"[  c #0EB2D6",
"{  c #13B7D5",
"}  c #18BCD5",
"|  c #51A7C4",
" . c #51ACC6",
".. c #51AECD",
"X. c #50B0CC",
"o. c #1BC0D4",
"O. c #1FC4D4",
"+. c #2BC6C4",
"@. c #23C8D3",
"#. c #23C9D3",
"$. c #27CCD3",
"%. c #27CDD3",
"&. c #2BD1D2",
"*. c #2FD5D2",
"=. c #31D6D2",
"-. c #33D5D4",
";. c #35D4D6",
":. c #36D4D6",
">. c #38D3D8",
",. c #3BD1DB",
"<. c #3AD2DA",
"1. c #3DD0DD",
"2. c #40CFDF",
"3. c #67C5DB",
"4. c #6EC3DD",
"5. c #6AC4DC",
"6. c #70C3DE",
"7. c #43CDE2",
"8. c #48CBE6",
"9. c #50C7EC",
"0. c #51C7EE",
"q. c #78CCE8",
"w. c #86A2A9",
"e. c #8FA5AC",
"r. c #97A8AE",
"t. c #9FACB0",
"y. c #B0C7CF",
"u. c #81CDE2",
"i. c #85CCE3",
"p. c #85CDE3",
"a. c #86CDE4",
"s. c #8FD0E2",
"d. c #9CD5E7",
"f. c #97D5E9",
"g. c #98D6EA",
"h. c #A8DBEB",
"j. c #ACDEEE",
"k. c #B9E3F1",
"l. c #C1E7F3",
"z. c #C6E8F3",
"x. c #C4E8F4",
"c. c #D8F0F8",
"v. c #DAF1F8",
"b. c #DBF1F9",
"n. c #F3FAFD",
"m. c #F8FBFE",
"M. c gray100",
/* pixels */
"  v.n.m.m.m.m.m.m.m.m.m.m.m.m.m.m.m.m.m.m.m.m.m.m.n.v.",
"  z.v.v.v.v.b.b.b.b.v.v.b.b.b.b.v.v.v.v.v.v.v.v.v.v.x.",
"  k.l.l.x.x.x.x.y.t.t.t.t.t.t.t.t.t.t.y.z.z.z.x.x.x.k.",
"  h.j.j.j.j.j.j.r.M.M.M.M.M.M.M.M.M.M.r.j.j.j.j.j.j.h.",
"  d.g.g.g.g.g.g.e.M.M.M.M.M.M.M.M.M.M.e.g.g.g.g.g.g.d.",
"  s.a.a.a.a.i.u.w.M.M.M.M.M.M.M.M.M.M.w.q.i.i.a.a.a.s.",
"  q.6.6.6.4.5.3.Z M.C V C C C C C C M.w.3.5.4.4.4.6.q.",
"  n + + & = , < g M.h u u i u u u g M.g < , - * + + n ",
"  m ; : > 6 7 y h M.k a Q Q ! ! a k M.j 9 8 < > : ; m ",
"  | 3 4 0 w t t k M.l x v l v x l l M.k t t w q 4 3 | ",
"   .D F H J R ~ z M.M.M.M.M.M.M.M.M.M.v ^ R K J G D  .",
". X.L I Y E / ) b v v M N N N N N v v b } ( W Y I L ..",
". ..] _ ` [ { } o.O.@.$.&.*.*.&.%.#.O.o.} { ` _ ] ] ..",
". X.0.0.9.8.7.2.1.,.:.-.-.-.-.-.:.>.,.1.1.8.0.0.0.0.X.",
"  . . . . O @ # % e s f S +.+.S f d e 1 $ o X . . . . "
};
