/* XPM */
static char *vista_max[] = {
/* columns rows colors chars-per-pixel */
"27 15 33 1 ",
"  c #0B0B0B",
". c gray5",
"X c gray35",
"o c gray38",
"O c #686868",
"+ c gray44",
"@ c #767676",
"# c #797979",
"$ c #7C7C7C",
"% c #808080",
"& c #838383",
"* c #989898",
"= c #9D9D9D",
"- c #A0A0A0",
"; c #A5A5A5",
": c gray65",
"> c #AEAEAE",
", c gray70",
"< c gray72",
"1 c gray74",
"2 c #C8C8C8",
"3 c #D0D0D0",
"4 c LightGray",
"5 c gray84",
"6 c gray85",
"7 c #DDDDDD",
"8 c gray90",
"9 c gray91",
"0 c gray92",
"q c gray95",
"w c #F4F4F4",
"e c gray97",
"r c #FEFEFE",
/* pixels */
".wrrrrrrrrrrrrrrrrrrrrrrrrw",
".0wwqqwwwwwwwwwwwwwwwwwqww0",
" 80000002,,,,,,,,,,20000080",
".7777777>weeeeeeeww,7777777",
".5353535>wwwwwwwwww:5353535",
".3222222:qwqwqqwqqw:2222225",
" 2111111=q------==q=1111<12",
" *XXXXXX@7@XXXXXX@7@XXXXXX*",
".*oooooo@7#oooooo#7#oooooo=",
".=OOOOOO#7$$$$$$##7$OOOOOO=",
".-++++++$7877887787&++++++-",
".-@#####&&&$&&$&&&&$#@##@#-",
".:#&$&$$$&&$#&$$$&$&$&&$$&-",
" :<,<<<<<<,<<<<<<<<<<<,<<<:",
" ...    ..   ...    .    .."
};
