/* XPM */
static char *vista_restore[] = {
/* columns rows colors chars-per-pixel */
"27 15 36 1 ",
"  c #0B0B0B",
". c gray5",
"X c gray35",
"o c gray38",
"O c #686868",
"+ c gray44",
"@ c #767676",
"# c #797979",
"$ c gray49",
"% c #808080",
"& c #868686",
"* c #989898",
"= c #9A9A9A",
"- c #9F9F9F",
"; c #A0A0A0",
": c gray65",
"> c #AAAAAA",
", c #AEAEAE",
"< c gray70",
"1 c gray72",
"2 c gray73",
"3 c gray74",
"4 c #C1C1C1",
"5 c #C8C8C8",
"6 c gray81",
"7 c LightGray",
"8 c gray84",
"9 c gray85",
"0 c #DDDDDD",
"q c gray88",
"w c gray91",
"e c gray92",
"r c gray94",
"t c #F4F4F4",
"y c gray98",
"u c #FEFEFE",
/* pixels */
".tuuuuuuuuuuuuuuuuuuuuuuuut",
".etttrttttr622221221228ette",
" weeeeeeeee<yyyyyyyuyu1eewe",
" 000004,,,,;333320ttrt,0000",
".87777>tytttrtytt3tttt>8778",
".65555:rrrtrrrtrr-::>e:5556",
" 53333-errrrrrrre;32;r;3225",
".*XXXX@0@@@$;$@@0@XX@0@XXX=",
".=oooo#0#oo#0##$0$###0#ooo=",
" -OOOO$0$OO$000;0;0000$OOO-",
".-++++$0%%%%%&&&0&%$%%$+++;",
".-@##@&0qqqqqqq0q%###@#@#@;",
".:$$$$&&&&&&&&&&&$%$$$$$$$:",
" :221121111122121222222222:",
"                           "
};
