/* XPM */
static char *vista_restore_presse[] = {
/* columns rows colors chars-per-pixel */
"27 15 136 2 ",
"   c #004B64",
".  c #005264",
"X  c #015566",
"o  c #0B6D7A",
"O  c #0C727F",
"+  c #007EA2",
"@  c #13868F",
"#  c #168F97",
"$  c #18949B",
"%  c #0381A3",
"&  c #0382A4",
"*  c #0687A6",
"=  c #0086AC",
"-  c #0188AD",
";  c #0E97AF",
":  c #1B9BA1",
">  c #058FB0",
",  c #018AB6",
"<  c #048EB7",
"1  c #058FB8",
"2  c #0993B2",
"3  c #0995BA",
"4  c #0B9ABC",
"5  c #109CB2",
"6  c #1EA4A8",
"7  c #14A7BB",
"8  c #17ACBD",
"9  c #22AFB1",
"0  c #25B8B8",
"q  c #5D8C96",
"w  c #5E8E97",
"e  c #5E8E99",
"r  c #5E909A",
"t  c #5E919C",
"y  c #608F98",
"u  c #7D8F92",
"i  c #62949A",
"p  c #61949C",
"a  c #62969E",
"s  c #63989D",
"d  c #7E9092",
"f  c #7E9293",
"g  c #779698",
"h  c #469BAB",
"j  c #6197A0",
"k  c #639AA1",
"l  c #6199A3",
"z  c #649CA1",
"x  c #659DA2",
"c  c #649EA5",
"v  c #7F9FA7",
"b  c #49A3B4",
"n  c #52ADB2",
"m  c #51A3BA",
"M  c #51A5BE",
"N  c #67A0A4",
"B  c #68A2A4",
"V  c #6BA5A4",
"C  c #0299C2",
"Z  c #069EC3",
"A  c #079EC3",
"S  c #09A3C5",
"D  c #0EA7C5",
"F  c #02A1CD",
"G  c #03A3CE",
"H  c #06A6CE",
"J  c #0AAACE",
"K  c #0BACCE",
"L  c #0EB0CF",
"P  c #18B0C4",
"I  c #1BB4C5",
"U  c #13B6CF",
"Y  c #16B9CF",
"T  c #03A6D7",
"R  c #09ACD6",
"E  c #0BAED6",
"W  c #00A3D8",
"Q  c #0EB2D6",
"!  c #13B7D5",
"~  c #1ABDD0",
"^  c #18BCD5",
"/  c #51A7C4",
"(  c #51ACC6",
")  c #51AECD",
"_  c #50B0CC",
"`  c #1EC1D0",
"'  c #1BC0D4",
"]  c #1FC4D4",
"[  c #2BC6C4",
"{  c #2BC7C5",
"}  c #3FCFDE",
"|  c #31D6D2",
" . c #35D4D6",
".. c #36D4D6",
"X. c #38D3D8",
"o. c #3BD1DB",
"O. c #3DD0DD",
"+. c #60C7DB",
"@. c #64C6DA",
"#. c #6EC3DD",
"$. c #70C3DE",
"%. c #43CDE2",
"&. c #48CBE6",
"*. c #4FC7EC",
"=. c #51C7EE",
"-. c #78CCE8",
";. c #899496",
":. c #8F9597",
">. c #809FA7",
",. c #819FA8",
"<. c #85A3A9",
"1. c #89A2AA",
"2. c #90A5AC",
"3. c #97A8AE",
"4. c #9FACB0",
"5. c #A7AFB2",
"6. c #B4B4B4",
"7. c #A0C1CB",
"8. c #BFCDD2",
"9. c #86CDE4",
"0. c #8FD0E2",
"q. c #9CD5E7",
"w. c #98D6EA",
"e. c #A8DBEB",
"r. c #ACDEEE",
"t. c #B9E3F1",
"y. c gray84",
"u. c #C1E7F3",
"i. c #C6E8F3",
"p. c #C4E8F4",
"a. c #D8F0F8",
"s. c #DAF1F8",
"d. c #DBF1F9",
"f. c #F3FAFD",
"g. c #F8FBFE",
"h. c gray100",
/* pixels */
"  s.f.g.g.g.g.g.g.g.f.g.g.g.g.g.f.g.g.g.g.g.g.g.g.f.s.",
"  i.s.s.s.s.d.d.d.d.a.8.5.5.5.5.5.5.5.5.5.5.8.s.s.s.p.",
"  t.u.u.p.p.p.p.p.p.p.5.h.h.h.h.h.h.h.h.h.h.4.p.p.p.t.",
"  e.r.r.r.r.7.3.3.3.3.:.6.6.6.6.6.y.h.h.h.h.3.r.r.r.e.",
"  q.w.w.w.w.2.h.h.h.h.h.h.h.h.h.h.6.h.h.h.h.2.w.w.w.q.",
"  0.9.9.9.9.1.h.h.h.h.h.h.h.h.h.h.;.<.<.1.h.1.9.9.9.0.",
"  -.$.$.$.#.>.h.h.h.h.h.h.h.h.h.h.v +.@.v h.,.$.#.$.-.",
"  m + + % * q h.i q i u 6.u i i h.i 5 ; q h.q & + + m ",
"  M = - > 2 e h.i 7 8 p h.s s d h.u p p i h.e > - = M ",
"  / , < 3 4 t h.p P I z h.h.h.6.h.6.h.h.h.h.r 3 1 , / ",
"  ( C Z S D t h.k z x g f d ;.d h.u z x j j h S A C ( ",
". _ F H K L k h.h.h.h.h.h.h.h.h.h.N ` ~ Y U L J H F ) ",
". ) W W R Q b c c c B B B V V V B n ] ' ^ ! R T W W ) ",
". _ =.=.=.&.%.%.O.o.X. .| | | |  .X.X.O.O.&.=.=.=.=._ ",
"  . X . . O @ # : 6 9 0 0 [ { [ 0 9 6 : $ o X . . . . "
};
