/* XPM */
static char *vista_menu_pressed_p[] = {
/* columns rows colors chars-per-pixel */
"26 15 189 2 ",
"   c #004964",
".  c #004B64",
"X  c #004D66",
"o  c #005264",
"O  c #015365",
"+  c #005976",
"@  c #066271",
"#  c #076573",
"$  c #0B717D",
"%  c #0D7782",
"&  c #0E7A85",
"*  c #107D88",
"=  c #107E88",
"-  c #007EA2",
";  c #12838D",
":  c #12848D",
">  c #148891",
",  c #148A92",
"<  c #168E96",
"1  c #168F96",
"2  c #18959B",
"3  c #1A989E",
"4  c #0180A3",
"5  c #0280A3",
"6  c #0483A4",
"7  c #0384A5",
"8  c #0587A7",
"9  c #0187AC",
"0  c #068AA8",
"q  c #0188AC",
"w  c #038BAE",
"e  c #058EAF",
"r  c #068EAF",
"t  c #088DAA",
"y  c #098FAB",
"u  c #0990AB",
"i  c #0B92AC",
"p  c #0C93AD",
"a  c #0C94AE",
"s  c #0C95AE",
"d  c #0D95AE",
"f  c #028CB7",
"g  c #038DB7",
"h  c #0791B1",
"j  c #0792B1",
"k  c #0994B3",
"l  c #0995B3",
"z  c #0A97B4",
"x  c #0A98B4",
"c  c #0C9AB5",
"v  c #0D9CB6",
"b  c #0E9DB6",
"n  c #0E9EB7",
"m  c #0490B8",
"M  c #0590B8",
"N  c #0693B9",
"B  c #0794BA",
"V  c #0997BB",
"C  c #0A9ABC",
"Z  c #0B9ABC",
"A  c #0C9DBD",
"S  c #0D9DBD",
"D  c #0FA0B8",
"F  c #0EA0BE",
"G  c #10A1B8",
"H  c #10A3BF",
"J  c #049BC2",
"K  c #059EC3",
"L  c #069EC3",
"P  c #08A0C4",
"I  c #08A1C4",
"U  c #0AA4C5",
"Y  c #0CA7C6",
"T  c #0EAAC6",
"R  c #02A2CE",
"E  c #04A3CE",
"W  c #06A6CE",
"Q  c #06A7CE",
"!  c #08A9CE",
"~  c #09AACE",
"^  c #0BACCE",
"/  c #0BADCE",
"(  c #0DAFCF",
")  c #11A5C0",
"_  c #12A6C0",
"`  c #13A7C1",
"'  c #13A8C1",
"]  c #10ADC7",
"[  c #12AFC8",
"{  c #0FB1CF",
"}  c #14B1C8",
"|  c #15B3C9",
" . c #16B3C9",
".. c #16B4C9",
"X. c #12B4CF",
"o. c #14B6CF",
"O. c #14B7CF",
"+. c #16B9CF",
"@. c #18BBCF",
"#. c #02A4D7",
"$. c #05A8D7",
"%. c #06AAD7",
"&. c #09ACD6",
"*. c #0BAFD6",
"=. c #0EB2D6",
"-. c #10B4D5",
";. c #12B6D5",
":. c #13B7D5",
">. c #15B9D5",
",. c #17BCD5",
"<. c #18BBD0",
"1. c #19BCD0",
"2. c #1ABDD0",
"3. c #18BCD5",
"4. c #1ABED4",
"5. c #51AAC6",
"6. c #51AECD",
"7. c #51B6D2",
"8. c #51BAD8",
"9. c #50BBD8",
"0. c #51BDDB",
"q. c #51BDDC",
"w. c #51BEE1",
"e. c #51BEE2",
"r. c #1CC1D4",
"t. c #3FCFDE",
"y. c #3ED0DD",
"u. c #40CFDF",
"i. c #63C6DB",
"p. c #64C6DB",
"a. c #65C6DB",
"s. c #66C5DC",
"d. c #65C6DC",
"f. c #6CC3DD",
"g. c #6EC3DD",
"h. c #6FC3DD",
"j. c #68C5DC",
"k. c #69C5DC",
"l. c #6AC4DC",
"z. c #6CC4DD",
"x. c #70C3DD",
"c. c #70C3DE",
"v. c #42CEE1",
"b. c #43CDE2",
"n. c #44CDE2",
"m. c #45CCE3",
"M. c #47CBE5",
"N. c #45CCE4",
"B. c #46CCE4",
"V. c #48CBE6",
"C. c #4BC9E9",
"Z. c #50C1E5",
"A. c #51C1E6",
"S. c #50C7EC",
"D. c #50C7ED",
"F. c #51C7EE",
"G. c #7ACEE1",
"H. c #7BCEE1",
"J. c #7CCDE1",
"K. c #7DCDE1",
"L. c #7CCEE1",
"P. c #7FCDE2",
"I. c #81CDE2",
"U. c #83CDE3",
"Y. c #85CCE3",
"T. c #85CDE3",
"R. c #86CDE4",
"E. c #91D5E8",
"W. c #92D5E8",
"Q. c #93D5E8",
"!. c #94D5E8",
"~. c #95D5E9",
"^. c #97D5E9",
"/. c #97D6E9",
"(. c #98D6EA",
"). c #9FD7E9",
"_. c #ABDDED",
"`. c #ABDEED",
"'. c #ACDDED",
"]. c #ACDEEE",
"[. c #B9E3F1",
"{. c #C5E9F3",
"}. c #C4E8F4",
"|. c #D0EDF6",
" X c #DBF1F9",
".X c #DEF2F9",
"XX c #EBF7FC",
"oX c #F8FBFE",
"OX c None",
/* pixels */
". XXoXoXoXoXoXoXoXoXoXoXoXoXoXoXoXoXoXoXoXoXoXoXXX. ",
". .X X X X X X X X X X X X X X X X X X X X X X X.XX ",
". |.}.}.}.}.}.}.}.}.}.}.}.}.}.}.}.}.}.}.}.}.}.}.|.. ",
". {.].].].].].].]._._._._.]._._._._.].].].].].].{.. ",
". [.(.(.(.(.(.^.^.^.E.E.E.E.E.E.^.^.^.^.(.(.(.(.[.. ",
". ].R.R.R.R.I.I.J.L.L.H.G.G.G.J.J.I.J.R.R.R.R.R.].. ",
". ).x.c.h.h.j.j.d.d.i.i.i.i.i.j.d.d.k.k.f.h.x.x.).. ",
". 5.- - 6 8 0 t u p p s s p p p u u t 0 7 7 - - 5.. ",
"X 6.9 w e h k z c b b G G G G n b c z l h r w 9 6.X ",
"X 7.f m N V C A F H _ H ' ' _ _ _ A A C V B N g 7.X ",
"X 9.J K P U Y T ] ] | | ....| | [ [ T Y U P K J 9.X ",
"X e.R W ^ ^ ( { X.o.+.@.2.2.<.o.O.X.{ ( / ^ W R e.X ",
". q.Z.$.&.*.=.-.;.>.,.4.r.r.2.,.>.>.-.=.*.%.#.e.q.. ",
"o + 9.D.C.V.V.N.v.v.u.t.t.y.u.u.v.N.N.N.C.D.F.9.+ o ",
"OX  o o # $ % * ; > 1 2 3 3 2 1 , : * & @ o o o . OX"
};
