/* XPM */
static char *vista_menu[] = {
/* columns rows colors chars-per-pixel */
"26 15 36 1 ",
"  c #0B0B0B",
". c gray5",
"X c #0E0E0E",
"o c gray6",
"O c #101010",
"+ c #111111",
"@ c gray17",
"# c gray35",
"$ c gray38",
"% c #686868",
"& c gray44",
"* c gray47",
"= c gray50",
"- c #A0A0A0",
"; c #A5A5A5",
": c gray66",
"> c #ACACAC",
", c gray68",
"< c #AEAEAE",
"1 c #B1B1B1",
"2 c gray70",
"3 c gray72",
"4 c gray74",
"5 c #C8C8C8",
"6 c LightGray",
"7 c gray85",
"8 c gray87",
"9 c #DFDFDF",
"0 c gray90",
"q c #E9E9E9",
"w c #EAEAEA",
"e c #EFEFEF",
"r c #F4F4F4",
"t c gray98",
"y c gray100",
"u c None",
/* pixels */
"XtyyyyyyyyyyyyyyyyyyyyyytX",
"XrrrrrrrrrrrrrrrrrrrrrrrrX",
"XeqqqqqqqqqqqqqqqqqqqqqqeX",
"Xq8888888888888888888888qX",
"X066666666666666666666660X",
"X855555555555555555555558X",
"X744444444444444444444447O",
"O-######################-X",
"O;$$$$$$$$$$$$$$$$$$$$$$;O",
"O:%%%%%%%%%%%%%%%%%%%%%%:O",
"O<&&&&&&&&&&&&&&&&&&&&&&<O",
"O1**********************1O",
"X<2====================1<X",
"u@<33333333333333333333<@u",
"uu                      uu"
};
