/* XPM */
static char *vista_below_pressed_[] = {
/* columns rows colors chars-per-pixel */
"26 15 200 2 ",
"   c #004964",
".  c #004B64",
"X  c #004D66",
"o  c #005264",
"O  c #015365",
"+  c #005976",
"@  c #066271",
"#  c #076573",
"$  c #0B717D",
"%  c #0D7782",
"&  c #0E7A85",
"*  c #107D88",
"=  c #107E88",
"-  c #007EA2",
";  c #12838D",
":  c #12848D",
">  c #148891",
",  c #148A92",
"<  c #168E96",
"1  c #168F96",
"2  c #18959B",
"3  c #1A989E",
"4  c #0180A3",
"5  c #0280A3",
"6  c #0483A4",
"7  c #0384A5",
"8  c #0587A7",
"9  c #0187AC",
"0  c #068AA8",
"q  c #0188AC",
"w  c #038BAE",
"e  c #058EAF",
"r  c #068EAF",
"t  c #088DAA",
"y  c #0990AB",
"u  c #028CB7",
"i  c #038DB7",
"p  c #0791B1",
"a  c #0792B1",
"s  c #0994B3",
"d  c #0995B3",
"f  c #0A97B4",
"g  c #0A98B4",
"h  c #0C9AB5",
"j  c #0490B8",
"k  c #0590B8",
"l  c #0693B9",
"z  c #0794BA",
"x  c #0997BB",
"c  c #0A9ABC",
"v  c #0B9ABC",
"b  c #0C9DBD",
"n  c #0D9DBD",
"m  c #1A98B0",
"M  c #1B9BB1",
"N  c #1B9DB8",
"B  c #258EA4",
"V  c #2790A4",
"C  c #399BAE",
"Z  c #3A9CAE",
"A  c #0EA0BE",
"S  c #1DA0B9",
"D  c #3CA4B4",
"F  c #3DA6B4",
"G  c #3EABB8",
"H  c #448F9D",
"J  c #44909E",
"K  c #618E97",
"L  c #618F97",
"P  c #40ACB9",
"I  c #049BC2",
"U  c #059EC3",
"Y  c #069EC3",
"T  c #08A0C4",
"R  c #08A1C4",
"E  c #0AA4C5",
"W  c #0CA7C6",
"Q  c #0EAAC6",
"!  c #02A2CE",
"~  c #04A3CE",
"^  c #06A6CE",
"/  c #06A7CE",
"(  c #08A9CE",
")  c #09AACE",
"_  c #0BACCE",
"`  c #0BADCE",
"'  c #0DAFCF",
"]  c #10ADC7",
"[  c #1FABC1",
"{  c #12AFC8",
"}  c #0FB1CF",
"|  c #12B4CF",
" . c #14B6CF",
".. c #14B7CF",
"X. c #16B9CF",
"o. c #02A4D7",
"O. c #05A8D7",
"+. c #06AAD7",
"@. c #09ACD6",
"#. c #0BAFD6",
"$. c #0EB2D6",
"%. c #10B4D5",
"&. c #12B6D5",
"*. c #13B7D5",
"=. c #15B9D5",
"-. c #17BCD5",
";. c #18BCD5",
":. c #1ABED4",
">. c #21ACC1",
",. c #22B4C7",
"<. c #24B5C8",
"1. c #26B8CC",
"2. c #28BBCC",
"3. c #51AAC6",
"4. c #51AECD",
"5. c #51B6D2",
"6. c #51BAD8",
"7. c #50BBD8",
"8. c #51BDDB",
"9. c #51BDDC",
"0. c #7EBFCE",
"q. c #69BFD2",
"w. c #6ABED3",
"e. c #51BEE1",
"r. c #51BEE2",
"t. c #3FCFDE",
"y. c #3ED0DD",
"u. c #40CFDF",
"i. c #66C5DC",
"p. c #6CC3DD",
"a. c #6EC3DD",
"s. c #6FC3DD",
"d. c #68C5DC",
"f. c #69C5DC",
"g. c #6AC4DC",
"h. c #6CC4DD",
"j. c #7EC5D7",
"k. c #70C3DD",
"l. c #70C3DE",
"z. c #42CEE1",
"x. c #43CDE2",
"c. c #44CDE2",
"v. c #45CCE3",
"b. c #47CBE5",
"n. c #45CCE4",
"m. c #46CCE4",
"M. c #48CBE6",
"N. c #4BC9E9",
"B. c #50C1E5",
"V. c #51C1E6",
"C. c #50C7EC",
"Z. c #50C7ED",
"A. c #51C7EE",
"S. c #7FCDE2",
"D. c #81B7C4",
"F. c #80B8C4",
"G. c #81B8C4",
"H. c #80BECE",
"J. c #80C5D8",
"K. c #81CDE2",
"L. c #83CDE3",
"P. c #85CCE3",
"I. c #85CDE3",
"U. c #86CDE4",
"Y. c #91D5E8",
"T. c #92D5E8",
"R. c #93D5E8",
"E. c #94D5E8",
"W. c #95D5E9",
"Q. c #97D5E9",
"!. c #97D6E9",
"~. c #98D6EA",
"^. c #9FD7E9",
"/. c #ABDDED",
"(. c #ABDEED",
"). c #ACDDED",
"_. c #ACDEEE",
"`. c #B9E3F1",
"'. c #C5E9F3",
"]. c #C4E8F4",
"[. c #D0EDF6",
"{. c #DBF1F9",
"}. c #DEF2F9",
"|. c #ECECEC",
" X c #EDECEC",
".X c #EDECED",
"XX c #EBF7FC",
"oX c #F3F3F2",
"OX c #F3F2F3",
"+X c #F2F3F3",
"@X c #F3F3F3",
"#X c #F4F3F3",
"$X c #F6F6F6",
"%X c #F6F7F6",
"&X c #F7F7F6",
"*X c #F9F9FA",
"=X c gray98",
"-X c #F8FBFE",
";X c #FDFDFE",
":X c None",
/* pixels */
". XX-X-X-X-X-X-X-X-X-X-X-X-X-X-X=X-X-X-X-X-X-X-XXX. ",
". }.{.{.{.{.{.{.{.{.{.{.{.{.{.{.{.{.{.{.{.{.{.{.}.X ",
". [.].].].].].].].].].].].].].].].].].'.].'.].].[.. ",
". '._._._._._._._././././._././././.).)./././._.'.. ",
". `.~.~.~.~.~.Q.Q.Q.T.T.Y.Y.Y.Y.R.E.E.Q.~.Q.~.~.`.. ",
". _.U.U.U.U.K.K.j.H.D.D.F.F.F.0.j.S.K.P.U.U.U.U._.. ",
". ^.k.l.s.s.d.d.w.|.|.|.|.|. X Xg.i.g.g.g.s.s.k.^.. ",
". 3.- - 6 8 0 t B H L L L L L H V y t 0 8 7 4 - 3.. ",
"X 4.9 w e p s f m @X#X@X@X@X@X@XM h g s s e e 9 4.X ",
"X 5.u j l x c b N C %X%X%X%X%XC S A A c x x l u 5.X ",
"X 7.I U Y W W Q ] [ D =X=X=XF >.{ ] W W Y Y Y I 6.X ",
"X e.! ( ( ) } } |  .,.G ;XP <.X...| } ' ` ) ( ! e.X ",
". 8.B.O.@.@.%.%.&.=.=.2.2.2.:.-.=.*.%.%.#.+.o.B.9.. ",
"o + 6.C.N.M.b.b.c.z.t.t.t.t.t.t.z.b.b.b.N.C.C.6.+ o ",
":X. o o # $ % * ; > < 2 3 3 2 < , : * & @ o o o . :X"
};
