/* XPM */
static char *vista_above_pressed_[] = {
/* columns rows colors chars-per-pixel */
"26 15 203 2 ",
"   c #004964",
".  c #004B64",
"X  c #004D66",
"o  c #005264",
"O  c #015365",
"+  c #005976",
"@  c #066271",
"#  c #076573",
"$  c #0B717D",
"%  c #0D7782",
"&  c #0E7A85",
"*  c #107D88",
"=  c #107E88",
"-  c #007EA2",
";  c #12838D",
":  c #12848D",
">  c #148891",
",  c #148A92",
"<  c #168E96",
"1  c #168F96",
"2  c #18959B",
"3  c #1A989E",
"4  c #0180A3",
"5  c #0280A3",
"6  c #0483A4",
"7  c #0384A5",
"8  c #0587A7",
"9  c #0187AC",
"0  c #068AA8",
"q  c #0188AC",
"w  c #038BAE",
"e  c #058EAF",
"r  c #068EAF",
"t  c #088DAA",
"y  c #0990AB",
"u  c #028CB7",
"i  c #038DB7",
"p  c #0791B1",
"a  c #0792B1",
"s  c #0994B3",
"d  c #0995B3",
"f  c #0A97B4",
"g  c #0A98B4",
"h  c #0C9AB5",
"j  c #0490B8",
"k  c #0590B8",
"l  c #0693B9",
"z  c #0794BA",
"x  c #0997BB",
"c  c #0A9ABC",
"v  c #0B9ABC",
"b  c #0C9DBD",
"n  c #0D9DBD",
"m  c #1A98B0",
"M  c #1B9BB1",
"N  c #1B9DB8",
"B  c #258EA4",
"V  c #2790A4",
"C  c #3A9CAE",
"Z  c #3A9DAE",
"A  c #3B9EAF",
"S  c #2B9DB3",
"D  c #2C9FB4",
"F  c #0EA0BE",
"G  c #1DA0B9",
"H  c #448F9D",
"J  c #44909E",
"K  c #618E97",
"L  c #618F97",
"P  c #049BC2",
"I  c #059EC3",
"U  c #069EC3",
"Y  c #08A0C4",
"T  c #08A1C4",
"R  c #0AA4C5",
"E  c #0CA7C6",
"W  c #0EAAC6",
"Q  c #02A2CE",
"!  c #04A3CE",
"~  c #06A6CE",
"^  c #06A7CE",
"/  c #08A9CE",
"(  c #09AACE",
")  c #0BACCE",
"_  c #0BADCE",
"`  c #0DAFCF",
"'  c #10ADC7",
"]  c #12AFC8",
"[  c #0FB1CF",
"{  c #14B1C8",
"}  c #15B3C9",
"|  c #16B3C9",
" . c #16B4C9",
".. c #12B4CF",
"X. c #14B6CF",
"o. c #14B7CF",
"O. c #16B9CF",
"+. c #18BBCF",
"@. c #02A4D7",
"#. c #05A8D7",
"$. c #06AAD7",
"%. c #09ACD6",
"&. c #0BAFD6",
"*. c #0EB2D6",
"=. c #10B4D5",
"-. c #12B6D5",
";. c #13B7D5",
":. c #15B9D5",
">. c #17BCD5",
",. c #18BBD0",
"<. c #19BCD0",
"1. c #1ABDD0",
"2. c #18BCD5",
"3. c #1ABED4",
"4. c #51AAC6",
"5. c #51AECD",
"6. c #51B6D2",
"7. c #51BAD8",
"8. c #50BBD8",
"9. c #51BDDB",
"0. c #51BDDC",
"q. c #69BFD2",
"w. c #6ABED3",
"e. c #51BEE1",
"r. c #51BEE2",
"t. c #1CC1D4",
"y. c #3FCFDE",
"u. c #3ED0DD",
"i. c #40CFDF",
"p. c #66C5DC",
"a. c #6CC3DD",
"s. c #6EC3DD",
"d. c #6FC3DD",
"f. c #68C5DC",
"g. c #69C5DC",
"h. c #6AC4DC",
"j. c #6CC4DD",
"k. c #7EC5D7",
"l. c #70C3DD",
"z. c #70C3DE",
"x. c #42CEE1",
"c. c #43CDE2",
"v. c #44CDE2",
"b. c #45CCE3",
"n. c #47CBE5",
"m. c #45CCE4",
"M. c #46CCE4",
"N. c #48CBE6",
"B. c #4BC9E9",
"V. c #50C1E5",
"C. c #51C1E6",
"Z. c #50C7EC",
"A. c #50C7ED",
"S. c #51C7EE",
"D. c #7FCDE2",
"F. c #82B7C4",
"G. c #80B8C4",
"H. c #8FBCC9",
"J. c #90BCC9",
"K. c #80C5D8",
"L. c #91CCDD",
"P. c #93CCDD",
"I. c #A0C2CC",
"U. c #A1C2CD",
"Y. c #81CDE2",
"T. c #83CDE3",
"R. c #85CCE3",
"E. c #85CDE3",
"W. c #86CDE4",
"Q. c #94D5E8",
"!. c #95D5E9",
"~. c #97D5E9",
"^. c #97D6E9",
"/. c #98D6EA",
"(. c #9FD7E9",
"). c #A7D4E2",
"_. c #ABDDED",
"`. c #ACDDED",
"'. c #ACDEEE",
"]. c #BDDDE8",
"[. c #B9E3F1",
"{. c #C5E9F3",
"}. c #C4E8F4",
"|. c #D0EDF6",
" X c #DBF1F9",
".X c #DEF2F9",
"XX c #ECECEC",
"oX c #EDECEC",
"OX c #EDECED",
"+X c #EBF7FC",
"@X c #F3F3F2",
"#X c #F3F2F3",
"$X c #F2F3F3",
"%X c #F3F3F3",
"&X c #F4F3F3",
"*X c #F6F6F6",
"=X c #F6F7F6",
"-X c #F7F7F6",
";X c #F9F9FA",
":X c gray98",
">X c #F8FBFE",
",X c #FDFDFE",
"<X c None",
/* pixels */
". +X>X>X>X>X>X>X>X>X>X>X>X>X>X>X>X>X>X>X>X>X>X>X+X. ",
". .X X X X X X X X X X X X X X X X X X X X X X X.XX ",
". |.}.}.}.}.}.}.}.}.}.].].].}.}.}.}.}.}.}.}.}.}.|.. ",
". {.'.'.'.'.'.'.'._.).I.,XI.)._._._._._.'.'.'.'.{.. ",
". [./././././.~.~.P.H.:X:X:XH.L.Q.Q.~.~./.~././.[.. ",
". '.W.W.W.W.Y.Y.k.F.=X=X*X*X*XG.k.D.Y.T.W.W.W.W.'.. ",
". (.l.z.d.d.f.f.w.*X#X@X@X#X#X#Xq.p.h.h.a.d.l.l.(.. ",
". 4.- - 6 8 0 t B H L L L L L H V y t 0 8 7 - - 4.. ",
"X 5.9 w e p d g m XXOXOXoXOXoXXXM h g d a r w w 5.X ",
"X 6.u j l x c b N S Z A Z A Z D G F n c x x i u 6.X ",
"X 8.P I Y R E W ' ' { {  . . .{ ] ' W R R R I P 8.X ",
"X e.! ~ / _ _ [ ..X.O.+.1.1.O.O.o...[ ` _ / ~ ! e.X ",
". 9.V.#.%.&.*.=.-.:.>.3.t.t.3.3.:.-.-.*.&.$.@.r.0.. ",
"o + 8.A.B.N.N.N.x.x.i.y.u.u.y.i.x.v.N.v.B.A.S.8.+ o ",
"<X. o o # $ % * ; > < 2 3 3 2 < , ; * * @ o o o . <X"
};
