/* XPM */
static char *vista_below[] = {
/* columns rows colors chars-per-pixel */
"26 15 61 1 ",
"  c #0B0B0B",
". c gray5",
"X c #0E0E0E",
"o c gray6",
"O c #101010",
"+ c #111111",
"@ c gray17",
"# c gray35",
"$ c gray38",
"% c #646464",
"& c gray40",
"* c #686868",
"= c #6C6C6C",
"- c gray43",
"; c gray44",
": c gray45",
"> c #747474",
", c #767676",
"< c gray47",
"1 c #797979",
"2 c gray48",
"3 c #7E7E7E",
"4 c gray50",
"5 c #808080",
"6 c #A0A0A0",
"7 c #A5A5A5",
"8 c gray66",
"9 c #ACACAC",
"0 c gray68",
"q c #AEAEAE",
"w c #B1B1B1",
"e c gray70",
"r c #B6B6B6",
"t c gray72",
"y c gray73",
"u c gray74",
"i c #C0C0C0",
"p c #C8C8C8",
"a c #D2D2D1",
"s c #D2D1D2",
"d c #D1D2D2",
"f c #D2D2D2",
"g c #D3D2D2",
"h c LightGray",
"j c gray84",
"k c gray85",
"l c #DADADB",
"z c gray86",
"x c gray87",
"c c #DFDFDF",
"v c #E1E1E1",
"b c #E2E1E1",
"n c #E2E1E2",
"m c gray90",
"M c #E9E9E9",
"N c #EAEAEA",
"B c #EFEFEF",
"V c #F4F4F4",
"C c gray98",
"Z c gray100",
"A c None",
/* pixels */
"XCZZZZZZZZZZZZZZZZZZZZZZCX",
"XVVVVVVVVVVVVVVVVVVVVVVVVX",
"XBMMMMMMMMMMMMMMMMMMMMMMBX",
"XMxxxxxxxxxxxxxxxxxxxxxxMX",
"XmhhhhhhhhhhhhhhhhhhhhhhmX",
"XxppppppiyeeeeeyipppppppxX",
"XkuuuuuurvvvvvvvruuuuuuukO",
"O6######%-,,,,,-%#######6X",
"O7$$$$$$%hhhhash%$$$$$$$7O",
"O8******=,jjjjj:-%*****%8O",
"O0;;;;;;;:1zzk<:-:-:::-:0O",
"Oe<<<<<<<<14c41,11,,,1,1eO",
"X0e54444444555444444444e0X",
"A@9tttttttttytttyrryyry0@A",
"AA                      AA"
};
