/* XPM */
static char *vista_above[] = {
/* columns rows colors chars-per-pixel */
"26 15 59 1 ",
"  c #0B0B0B",
". c gray5",
"X c #0E0E0E",
"o c gray6",
"O c #101010",
"+ c #111111",
"@ c gray17",
"# c gray35",
"$ c gray38",
"% c #646464",
"& c gray40",
"* c #686868",
"= c #6C6C6C",
"- c gray43",
"; c gray44",
": c #747474",
"> c #767676",
", c gray47",
"< c gray50",
"1 c #A0A0A0",
"2 c #A5A5A5",
"3 c gray66",
"4 c #ACACAC",
"5 c gray68",
"6 c #AEAEAE",
"7 c #B1B1B1",
"8 c gray70",
"9 c #B6B6B6",
"0 c gray72",
"q c #BBBBBB",
"w c gray74",
"e c #C0C0C0",
"r c gray76",
"t c #C8C8C8",
"y c #CACACA",
"u c gray80",
"i c #CDCCCC",
"p c #CDCCCD",
"a c LightGray",
"s c gray85",
"d c #DDDDDD",
"f c gray87",
"g c #DFDFDF",
"h c gray90",
"j c #E6E6E6",
"k c #E7E6E6",
"l c #E9E9E9",
"z c #EAEAEA",
"x c gray92",
"c c #EBECEB",
"v c #ECECEB",
"b c #EFEFEF",
"n c #F0F0F1",
"m c #F1F1F1",
"M c #F4F4F4",
"N c #F6F6F6",
"B c gray98",
"V c gray100",
"C c None",
/* pixels */
"XBVVVVVVVVVVVVVVVVVVVVVVBX",
"XMMMMMMMMMMnMMMMMMMMMMMMMX",
"XnlllllllllfffllllllllllvX",
"XlffffffffarMraffffffffflX",
"XhaaaaaaatqnnnqtaaaaaaaakX",
"Xfttttttr8ccvcv8rtttttttgX",
"Xswwwwww8lkkkkkk8wwwwwwwsX",
"X1######%->>>>>-&#######1O",
"O2$$$$$$&ppuuuuu&$$$$$$$2X",
"O3******=;:::::;-*******3+",
"+5;;;;;;;;;;;;;;;;;;;;;;5+",
"+7,,,,,,,,,,,,,,,,,,,,,,7+",
"X58<<<<<<<<<<<<<<<<<<<<85X",
"C@4q000000000000q8q88qq3@C",
"CC                  X X CC"
};
