/* XPM */
static char *_____________[] = {
/* columns rows colors chars-per-pixel */
"26 15 35 1",
"  c #0519FF",
". c #F0FCFF",
"X c #FFFFFF",
"o c #E0F9FF",
"O c #DFF9FF",
"+ c #C6F3FF",
"@ c #BFF1FF",
"# c #D5F7FF",
"$ c #0314FF",
"% c #B1EDFF",
"& c #9EE6FF",
"* c #95E2FF",
"= c #8EDFFF",
"- c #86DBFF",
"; c #A8EAFF",
": c #7DD7FF",
"> c #5DC2FF",
", c #2780FF",
"< c #46ADFF",
"1 c #5AC0FF",
"2 c #64C8FF",
"3 c #2B89FF",
"4 c #4AB2FF",
"5 c #3090FF",
"6 c #4FB7FF",
"7 c #061DFF",
"8 c #6ACCFF",
"9 c #3599FF",
"0 c #53BAFF",
"q c #6ECEFF",
"w c #3BA0FF",
"e c #76D3FF",
"r c #3FA6FF",
"t c #000000",
"y c #1045FF",
/* pixels */
" .XXXXXXXXXXXXXXXXXXXXXX. ",
" ooooooooooooooooOooooooo ",
" o++++++++++++++++@#++++# ",
"$+%%%%%%oOOOOOOOoo%%%%%%+ ",
" @&&&&&&O@%@%@%%%#*&&&&&@ ",
" %===-==+&&&;*;&;+=====-% ",
" ;::::::@**&**&**+::::::; ",
" >,,,,,,-<<<<<<<<-,,,,,,1 ",
" 2333333=44444444=3333332 ",
" 2555555=66666666=55555527",
"78999999=00000000=99999987",
"7qwwwwww*11111111*wwwwwwq7",
" 8errrrr****&**&&&rrrrrq8 ",
"ty2eeeee:e:e:ee:eeeeeee8yt",
"tt$$$$$$$$$$$$$$$$$$$$$$tt"
};
