/* XPM */
static char *_____________[] = {
/* columns rows colors chars-per-pixel */
"26 15 164 2",
"   c #00B2BA",
".  c #00B3BB",
"X  c #00B5BA",
"o  c #00B7BF",
"O  c #2FB5BB",
"+  c #6ABABE",
"@  c #6FBBBF",
"#  c #7EBEC1",
"$  c #00C1CB",
"%  c #2FC2CB",
"&  c #2FC4CD",
"*  c #45C2CB",
"=  c #53C3CC",
"-  c #53C5CE",
";  c #5DC3CB",
":  c #45C5D0",
">  c #45CBD8",
",  c #45CBDB",
"<  c #53C5D0",
"1  c #5DC6D1",
"2  c #5DC9D4",
"3  c #5DCBD8",
"4  c #64C4CC",
"5  c #64C6CE",
"6  c #6AC5CC",
"7  c #6AC6CE",
"8  c #6FC6CF",
"9  c #6FC7CF",
"0  c #74C5CD",
"q  c #77C7CF",
"w  c #64C6D1",
"e  c #6AC7D1",
"r  c #6FC7D1",
"t  c #64CAD4",
"y  c #6ACAD4",
"u  c #64CCDB",
"i  c #6ACCD8",
"p  c #6ACDDB",
"a  c #77C8D2",
"s  c #74CAD4",
"d  c #7BC8D0",
"f  c #7BC9D2",
"g  c #7EC9D2",
"h  c #7BCBD5",
"j  c #74CDD8",
"k  c #77CDD8",
"l  c #77CDDA",
"z  c #7ECDD8",
"x  c #7ECED8",
"c  c #7ECEDA",
"v  c #83C0C2",
"b  c #85C0C3",
"n  c #89C1C4",
"m  c #8CC3C5",
"M  c #8FC4C6",
"N  c #8FC5C7",
"B  c #92C6C8",
"V  c #94C7C9",
"C  c #96C8CA",
"Z  c #80C9D2",
"A  c #83C9D2",
"S  c #80CCD5",
"D  c #85CDD5",
"F  c #83CED8",
"G  c #87CFD8",
"H  c #85CFDA",
"J  c #89D0DA",
"K  c #B2CED3",
"L  c #B2CED4",
"P  c #B4CDD5",
"I  c #B4CED7",
"U  c #ADD8DD",
"Y  c #AED8DE",
"T  c #AFD8DF",
"R  c #B3D0D6",
"E  c #B3D1D6",
"W  c #B3D2D8",
"Q  c #B4D0D9",
"!  c #B4D2D8",
"~  c #B4D2D9",
"^  c #B4D1DB",
"/  c #B4D2DB",
"(  c #B4D4DA",
")  c #B4D5DA",
"_  c #B5D5DB",
"`  c #B4D2DD",
"'  c #B4D2DF",
"]  c #B4D6DD",
"[  c #B5D7DD",
"{  c #B6D7DD",
"}  c #BBD5DD",
"|  c #BCD4DD",
" . c #BDD4DD",
".. c #BCD5DD",
"X. c #BED4DD",
"o. c #BED4DE",
"O. c #B6D8DD",
"+. c #AFD7E0",
"@. c #B4D2E0",
"#. c #B4D3E1",
"$. c #B4D3E2",
"%. c #B0D7E0",
"&. c #B0D7E1",
"*. c #B1D7E1",
"=. c #B1D7E2",
"-. c #B2D6E3",
";. c #B4D5E5",
":. c #B4D5E6",
">. c #B4D5E7",
",. c #C2D7E0",
"<. c #C3D7E0",
"1. c #C4D7E1",
"2. c #C5DAE1",
"3. c #C8DAE3",
"4. c #CADBE3",
"5. c #C9DCE3",
"6. c #CADCE3",
"7. c #C8DAE4",
"8. c #CDDDE6",
"9. c #CDDEE7",
"0. c #CEDFE7",
"q. c #D4E1E4",
"w. c #D4E2E6",
"e. c #D5E3E7",
"r. c #D1E0E9",
"t. c #D5E3E9",
"y. c #D5E3EB",
"u. c #D5E5E9",
"i. c #D7E5EB",
"p. c #D5E6EB",
"a. c #D4E3EC",
"s. c #D5E6EC",
"d. c #D5E7EC",
"f. c #D6E7EC",
"g. c #D8E5EB",
"h. c #D8E6EE",
"j. c #DAE7EE",
"k. c #DBE7EE",
"l. c #D6E8EC",
"z. c #DCE9EE",
"x. c #DDE9F1",
"c. c #DFEBF0",
"v. c #DEEAF1",
"b. c #DFEBF1",
"n. c #E1ECF1",
"m. c #E4EEF3",
"M. c #E4EFF3",
"N. c #E5EFF3",
"B. c #E5EFF5",
"V. c #E5EFF7",
"C. c #EAF1F7",
"Z. c #EDF3F5",
"A. c #ECF3F7",
"S. c #EDF5F7",
"D. c #F0F7F9",
"F. c #F1F7F9",
"G. c #F0F5FC",
"H. c #F5F7FC",
"J. c #F1F9F9",
"K. c #F3F9FC",
"L. c #F5F9FC",
"P. c #F9FCFC",
"I. c #FCFCFC",
"U. c None",
/* pixels */
"  V.G.G.G.G.G.G.G.G.G.G.G.G.G.G.G.I.L.H.I.D.G.G.V.  ",
"  v.v.v.x.x.x.x.x.x.x.x.x.x.x.x.P.V.V.V.V.P.v.v.v.  ",
"  f.a.a.a.a.a.a.a.y.a.a.a.y.a.a.L.v.m.v.v.L.a.a.g.  ",
"  a.9.8.9.9.9.9.V.m.m.m.m.m.m.I.A.A.g.k.K.8.8.9.a.  ",
"  r.4.7.7.7.2.4.z.a.0.8.8.K.K.j.g.A.D.D.7.4.7.4.r.  ",
"  8.1.1.,.,.,.,.c.5.5.4.5.J.g.f.g.P.,.1.,.,.,.2.9.  ",
"  4.o.o.o.o.| | z.2.2.2.2.2.D.y.D.j.| | o.o. . .4.  ",
"  P $ * ; 4 6 0 q.K L L K Z.K Z.Z.q.0 6 4 = % $ P   ",
"  Q & = w 8 q d w.E E E S.E E E E w.d q 9 7 - & Q   ",
"  Q : 1 e a f Z t.E ~ E ~ ~ E ~ ( t.A g a r w < ~   ",
"  ` 2 t s h z D t.( ( ( ( ( [ ( ( t.D S h a y 2 ~   ",
"  @.3 i j z F J l.[ O.[ O.O.[ [ [ t.H F x k i > @.  ",
"  ` @.u j c H H f.l.f.f.j.l.l.l.l.f.J H c p , @.`   ",
"U.o ` >.+.+.+.+.+.&.U U U U U U U &.&.&.-.>.>.` o U.",
"U.U.X X # # b n m m B V C C V B B n n b + O X X U.U."
};
