/* XPM */
static char *vista_un_sticky_pres[] = {
/* columns rows colors chars-per-pixel */
"26 15 199 2 ",
"   c #004964",
".  c #004B64",
"X  c #004D66",
"o  c #005264",
"O  c #015365",
"+  c #005976",
"@  c #066271",
"#  c #076573",
"$  c #0B717D",
"%  c #0D7782",
"&  c #0E7A85",
"*  c #107D88",
"=  c #107E88",
"-  c #007EA2",
";  c #12838D",
":  c #12848D",
">  c #148891",
",  c #148A92",
"<  c #168E96",
"1  c #168F96",
"2  c #18959B",
"3  c #1A989E",
"4  c #0180A3",
"5  c #0280A3",
"6  c #0483A4",
"7  c #0384A5",
"8  c #0587A7",
"9  c #0187AC",
"0  c #068AA8",
"q  c #0188AC",
"w  c #038BAE",
"e  c #058EAF",
"r  c #068EAF",
"t  c #088DAA",
"y  c #028CB7",
"u  c #038DB7",
"i  c #0791B1",
"p  c #0792B1",
"a  c #0994B3",
"s  c #0995B3",
"d  c #0A97B4",
"f  c #0A98B4",
"g  c #0490B8",
"h  c #0590B8",
"j  c #0693B9",
"k  c #0794BA",
"l  c #0997BB",
"z  c #0A9ABC",
"x  c #0B9ABC",
"c  c #0C9DBD",
"v  c #0D9DBD",
"b  c #049BC2",
"n  c #059EC3",
"m  c #069EC3",
"M  c #08A0C4",
"N  c #08A1C4",
"B  c #0AA4C5",
"V  c #0CA7C6",
"C  c #0EAAC6",
"Z  c #02A2CE",
"A  c #04A3CE",
"S  c #06A6CE",
"D  c #06A7CE",
"F  c #08A9CE",
"G  c #09AACE",
"H  c #0BACCE",
"J  c #0BADCE",
"K  c #0DAFCF",
"L  c #0FB1CF",
"P  c #02A4D7",
"I  c #05A8D7",
"U  c #06AAD7",
"Y  c #09ACD6",
"T  c #0BAFD6",
"R  c #0EB2D6",
"E  c #10B4D5",
"W  c #4BAEC1",
"Q  c #4BAFC2",
"!  c #51AAC6",
"~  c #51AECD",
"^  c #4BB0C3",
"/  c #4CB6C9",
"(  c #4DB6C9",
")  c #4DB7C9",
"_  c #4EB8CA",
"`  c #4EB9CA",
"'  c #4EBBCF",
"]  c #4FBCD0",
"[  c #51B6D2",
"{  c #50BDD0",
"}  c #51BED1",
"|  c #51BAD8",
" . c #50BBD8",
".. c #51BDDB",
"X. c #51BDDC",
"o. c #51BEE1",
"O. c #51BEE2",
"+. c #3FCFDE",
"@. c #3ED0DD",
"#. c #40CFDF",
"$. c #50C4D6",
"%. c #51C5D6",
"&. c #52C6D7",
"*. c #53C6D7",
"=. c #53C7D7",
"-. c #51C9DB",
";. c #53CBDB",
":. c #54CCDB",
">. c #54CCDC",
",. c #55CDDC",
"<. c #56CEDC",
"1. c #6CC3DD",
"2. c #6EC3DD",
"3. c #6FC3DD",
"4. c #68C5DC",
"5. c #69C5DC",
"6. c #6AC4DC",
"7. c #6CC4DD",
"8. c #70C3DD",
"9. c #70C3DE",
"0. c #42CEE1",
"q. c #43CDE2",
"w. c #44CDE2",
"e. c #45CCE3",
"r. c #47CBE5",
"t. c #45CCE4",
"y. c #46CCE4",
"u. c #48CBE6",
"i. c #4BC9E9",
"p. c #50C1E5",
"a. c #51C1E6",
"s. c #50C7EC",
"d. c #50C7ED",
"f. c #51C7EE",
"g. c #81CDE2",
"h. c #83CDE3",
"j. c #85CCE3",
"k. c #85CDE3",
"l. c #86CDE4",
"z. c #8BD4E4",
"x. c #8CD4E4",
"c. c #8DD4E5",
"v. c #97D5E9",
"b. c #97D6E9",
"n. c #98D6EA",
"m. c #9FD7E9",
"M. c #9CDAE8",
"N. c #9EDAE8",
"B. c #9FDAE8",
"V. c #ACDDED",
"C. c #ACDEEE",
"Z. c #ADE0EE",
"A. c #AEE0EE",
"S. c #AFE0EE",
"D. c #B0E0EE",
"F. c #B9E3F1",
"G. c #C4E4EA",
"H. c #C4E6ED",
"J. c #C5E8EF",
"K. c #C5E9F1",
"L. c #C5EBF1",
"P. c #C5E9F3",
"I. c #C6EDF3",
"U. c #C4E8F4",
"Y. c #C6EDF4",
"T. c #C7EEF4",
"R. c #CDECF3",
"E. c #CEECF3",
"W. c #C8EFF4",
"Q. c #D0EDF6",
"!. c #D5EEF6",
"~. c #D6EFF6",
"^. c #D7EFF6",
"/. c #C8F0F4",
"(. c #DAF1F6",
"). c #DBF1F9",
"_. c #DEF2F9",
"`. c #E0F3F8",
"'. c #E1F3F9",
"]. c #E5F4F9",
"[. c #EAF6FA",
"{. c #EAF7FA",
"}. c #EBF7FA",
"|. c #ECF7FB",
" X c #EBF7FC",
".X c #F5FAFB",
"XX c #F2F9FC",
"oX c #F4FAFC",
"OX c #F5FBFC",
"+X c #F8FBFE",
"@X c #F8FCFD",
"#X c #F9FCFD",
"$X c #F9FDFD",
"%X c #FBFCFE",
"&X c #FAFDFE",
"*X c #FBFDFE",
"=X c #FDFEFE",
"-X c #FEFEFE",
";X c None",
/* pixels */
".  X+X+X+X+X+X+X+X+X+X+X+X+X+X+X+X=X=X+X=X+X+X+X X. ",
". _.).).).).).).).).)._.).).).).=X|.|.|.|.=X)._._.. ",
". Q.U.U.U.U.U.U.U.U.U.U.U.P.U.U.$X'.`.`.'.$XU.U.Q.. ",
". P.C.C.C.C.C.C.[.[.[.[.[.[.[.=X.X.X!.!.=XC.C.C.U.. ",
". F.n.n.n.n.n.v.].D.D.S.C.$X$X^.^.XX#X#Xn.v.n.n.F.. ",
". C.l.l.l.l.g.g.`.B.M.M.M.$XE.E.E.=Xg.l.l.l.l.l.C.. ",
". m.8.9.3.3.4.4.(.c.z.z.z.z.@XP..X(.6.6.6.3.8.8.m.. ",
". ! - - 6 8 0 t G.W ^ ^ ^ .X^ .X.XH.t 0 8 7 5 - ! . ",
"X ~ 9 w e i a d H.( ) ` .X` ` ( / H.f s p e w q ~ X ",
"X [ y g j l x v J.' { { } } { ] ] J.c x l l h u [ X ",
"X  .b n M B V C P.%.%.%.=.=.%.%.%.P.C V N n n b  .X ",
"X o.Z S H H K K I.-.;.:.<.<.:.:.-.I.L K K H S Z o.X ",
". ..p.I Y T R E T.T.T.W././.W.T.T.T.R R T U P O.X.. ",
"o +  .d.i.u.u.t.0.0.#.+.@.@.+.#.0.w.y.y.i.d.f. .+ o ",
";X  o o # $ % * ; > 1 2 3 3 2 1 , ; * * @ o o o . ;X"
};
