/* XPM */
static char *vista_un_sticky[] = {
/* columns rows colors chars-per-pixel */
"26 15 52 1 ",
"  c #0B0B0B",
". c gray5",
"X c #0E0E0E",
"o c gray6",
"O c #101010",
"+ c #111111",
"@ c gray17",
"# c gray35",
"$ c gray38",
"% c #686868",
"& c gray44",
"* c gray47",
"= c gray50",
"- c gray53",
"; c #8D8D8D",
": c #929292",
"> c #979797",
", c #9D9D9D",
"< c #A0A0A0",
"1 c #A5A5A5",
"2 c gray66",
"3 c #ACACAC",
"4 c gray68",
"5 c #AEAEAE",
"6 c #B1B1B1",
"7 c gray70",
"8 c gray72",
"9 c gray74",
"0 c #C3C3C3",
"q c #C6C6C6",
"w c #C8C8C8",
"e c gray79",
"r c #CBCBCB",
"t c #CECECE",
"y c gray81",
"u c gray82",
"i c LightGray",
"p c #D7D7D7",
"a c gray85",
"s c gray87",
"d c #DFDFDF",
"f c gray90",
"g c #E7E7E7",
"h c #E9E9E9",
"j c #EAEAEA",
"k c gray92",
"l c #EFEFEF",
"z c #F3F3F3",
"x c #F4F4F4",
"c c gray98",
"v c gray100",
"b c None",
/* pixels */
"XcvvvvvvvvvvvvvvvvvvvvvvcX",
"XxxxxxxxxxxxxxxxxzxxxxxxxX",
"XzhhhhhhhhhhhhhhhhhhhhhhlX",
" hsssssszzzzzzzzzzsssssshX",
"XfiiiiiilfsfsfsssliiiiiifX",
"XseeeqqehiiiaiaiaheeqeeqsX",
"Xa999999fitittitth999999aX",
"X<######0--------0######<X",
"X2$$$$$$q;;;;;;;;q$$$$$$2X",
"X2%%%%%%e::::::::e%%%%%%2+",
"+4&&&&&&e>>>>>>>>e&&&&&&4+",
"+6******t,,,,,,,,t******6+",
"X48=====tiitiitiii=====64X",
"b@2888888888888888888884@b",
"bb                      bb"
};
