/* XPM */
static char *active_24[] = {
/* columns rows colors chars-per-pixel */
"24 24 33 1 ",
"  c black",
". c gray3",
"X c #080909",
"o c gray20",
"O c #333434",
"+ c #414141",
"@ c #414242",
"# c gray26",
"$ c gray28",
"% c #474848",
"& c #484848",
"* c #4D4E4E",
"= c #4E4E4E",
"- c #535454",
"; c gray33",
": c #595A5A",
"> c #5A5A5A",
", c #5A5B5B",
"< c #5F6060",
"1 c #606060",
"2 c #606161",
"3 c #656666",
"4 c gray40",
"5 c #666767",
"6 c #676767",
"7 c #6B6C6C",
"8 c #6C6C6C",
"9 c #6C6D6D",
"0 c #6D6D6D",
"q c #717171",
"w c #717272",
"e c #818282",
"r c gray51",
/* pixels */
"eeeeeeeeeeeeeeeeeeeeeeee",
"eeeeeeeeeeeeeeeerrrrrrrr",
"wwwwwwwwwwwwwwwwwwwwwwww",
"777878888889999988889999",
"333333336366666633637363",
"2,2,222,<<<,22<<1122,222",
",,,,,,,,,,,,,,,,,,,,,,,,",
";;---------------;;;;;;;",
"************************",
"$$$$&&$$%%%%%%&%&&&&&&%&",
"@+@@@@@@@@@@@@@@##@@@@@@",
"oooooooOooOOOOoOOOOOOOOO",
".X..XX.X.XXXXXX.XXXXXXXX",
"                        ",
"                        ",
"                        ",
"                        ",
"                        ",
"                        ",
"                        ",
"                        ",
"                        ",
"                        ",
"                        "
};
