/* XPM */
static char *inactive_24[] = {
/* columns rows colors chars-per-pixel */
"24 24 34 1 ",
"  c black",
". c #040404",
"X c #0E0E0E",
"o c #0F0F0E",
"O c gray6",
"+ c gray11",
"@ c #1D1D1D",
"# c gray12",
"$ c gray17",
"% c #2C2C2C",
"& c #2D2D2D",
"* c gray18",
"= c #3A3A3A",
"- c gray23",
"; c #3C3C3C",
": c gray28",
"> c #484848",
", c #484849",
"< c #494949",
"1 c gray29",
"2 c #535353",
"3 c gray33",
"4 c #555555",
"5 c #565656",
"6 c #5D5D5D",
"7 c #5F5F5F",
"8 c #656565",
"9 c #676767",
"0 c #6C6C6C",
"q c gray43",
"w c #717171",
"e c #727272",
"r c #767676",
"t c #797979",
/* pixels */
"tttttttttttttttttttttttt",
"tttttttttttttttttttttttt",
"tttttrtrtrtrrrrtrtrtrrtr",
"rrrrrrrrrrrrrrrrrrrerrrr",
"eeeeeeeeeeeqeeeeqeqeqee0",
"qqqqqq0q0000000000q0q000",
"999999999989899998889888",
"777777777776767666666677",
"533553532233333322222222",
"111,,1,,::,,,,>,,:>:::::",
";;;;;;;;--------------==",
"***&**&&&&&$&$&$$$&%$$$$",
"#####@#@@@@@@+@@@@@@++@@",
"OOOOOOOOOXXXXXXXXXXXOOOO",
"........................",
"                        ",
"                        ",
"                        ",
"                        ",
"                        ",
"                        ",
"                        ",
"                        ",
"                        "
};
